<?xml version="1.0" encoding="UTF-8" standalone="no"?>
<!-- Created with Inkscape (http://www.inkscape.org/) -->

<svg
   width="24"
   height="24"
   viewBox="0 0 24 24"
   version="1.1"
   id="svg1"
   xml:space="preserve"
   sodipodi:docname="furtrack.svg"
   inkscape:version="1.4 (86a8ad7, 2024-10-11)"
   xmlns:inkscape="http://www.inkscape.org/namespaces/inkscape"
   xmlns:sodipodi="http://sodipodi.sourceforge.net/DTD/sodipodi-0.dtd"
   xmlns="http://www.w3.org/2000/svg"
   xmlns:svg="http://www.w3.org/2000/svg"><sodipodi:namedview
     id="namedview1"
     pagecolor="#ffffff"
     bordercolor="#000000"
     borderopacity="0.25"
     inkscape:showpageshadow="2"
     inkscape:pageopacity="0.0"
     inkscape:pagecheckerboard="0"
     inkscape:deskcolor="#d1d1d1"
     inkscape:zoom="42.77996"
     inkscape:cx="8.7774743"
     inkscape:cy="13.908381"
     inkscape:window-width="3840"
     inkscape:window-height="2054"
     inkscape:window-x="3829"
     inkscape:window-y="-11"
     inkscape:window-maximized="1"
     inkscape:current-layer="svg1" /><defs
     id="defs1" /><g
     id="layer1"><path
       style="opacity:1;fill:#ffffff;fill-opacity:1;stroke:none;stroke-width:1.66155;stroke-linejoin:round;paint-order:stroke fill markers"
       d="m 0,19.879139 h 2.8640868 l 2.1814173,-6.580501 6.6678819,-0.175056 0.763087,-2.23432 -6.5751036,-0.172443 1.1461428,-3.4574751 c 0,0 0.4701231,-1.4181818 2.1318135,-1.4181818 H 15.164416 L 15.974926,3.4767957 9.6440602,3.244011 c 0,0 -3.5488133,-0.5608923 -5.1286963,3.0453625 z"
       id="path11" /><path
       id="path17"
       style="opacity:1;fill:#ffffff;fill-opacity:1;stroke:none;stroke-width:1.66155;stroke-linejoin:round;paint-order:stroke fill markers"
       d="m 18.34093,7.6307527 c -0.0043,0.1524072 0.06854,0.3439029 0.236124,0.3391597 0.287433,-0.00813 0.192609,-0.1250291 0.433609,-0.1287948 0.274762,-0.0043 0.347745,0.1116222 0.523766,0.1159153 0.17602,0.0043 0.285266,-0.2234294 0.291935,-0.3434528 0.01288,-0.2318307 -0.184608,-0.296228 -0.326281,-0.4207297 -0.141675,-0.1245016 -0.231846,-0.4385649 -0.425023,-0.4336092 -0.334867,0.00859 -0.226228,0.2432129 -0.394971,0.455075 -0.139623,0.1753012 -0.334867,0.2640293 -0.339159,0.4164365 z m 0.624825,-2.5596738 a 0.13308797,0.09444953 80.464617 0 0 0.115195,0.1156024 0.13308797,0.09444953 80.464617 0 0 0.0711,-0.1468957 0.13308797,0.09444953 80.464617 0 0 -0.115195,-0.1156026 0.13308797,0.09444953 80.464617 0 0 -0.0711,0.1468959 z m 0.782985,0.8173083 a 0.14101706,0.09874269 78.497719 0 0 0.124875,0.1184957 0.14101706,0.09874269 78.497719 0 0 0.06864,-0.1578741 0.14101706,0.09874269 78.497719 0 0 -0.124875,-0.1184959 0.14101706,0.09874269 78.497719 0 0 -0.06864,0.1578743 z m 0.406402,0.5517737 c 0.03028,0.1361062 -0.152482,0.5229093 -0.38893,0.5666411 -0.236445,0.04373 -0.276705,-0.045504 -0.321528,-0.2687271 -0.04482,-0.2232234 0.16035,-0.5502014 0.385275,-0.604139 0.224925,-0.053936 0.294891,0.1701218 0.325183,0.306225 z m -0.97933,-0.052483 c -0.128817,-0.00357 -0.224065,-0.1341285 -0.198565,-0.4809646 0.0255,-0.3468363 0.157532,-0.5366205 0.346081,-0.5250956 0.188547,0.011525 0.220325,0.3360548 0.208016,0.5374575 -0.01231,0.2014027 -0.201795,0.4866021 -0.355532,0.4686027 z M 18.723022,5.072029 a 0.09444953,0.13308797 0 0 1 -0.09445,0.1330881 0.09444953,0.13308797 0 0 1 -0.09445,-0.1330881 0.09444953,0.13308797 0 0 1 0.09445,-0.1330879 0.09444953,0.13308797 0 0 1 0.09445,0.1330879 z m -0.648268,0.91015 a 0.09874269,0.14101706 0 0 1 -0.09874,0.1410172 0.09874269,0.14101706 0 0 1 -0.09874,-0.1410172 0.09874269,0.14101706 0 0 1 0.09874,-0.141017 0.09874269,0.14101706 0 0 1 0.09874,0.141017 z m -0.266176,0.66544 c -0.0025,0.1394101 0.206072,0.5924582 0.446489,0.588163 0.240417,-0.0043 0.309695,-0.2102237 0.309107,-0.4379024 -5.88e-4,-0.2276787 -0.266845,-0.5071764 -0.498008,-0.5151792 -0.231163,-0.008 -0.255045,0.2255086 -0.257588,0.3649186 z m 0.828579,-0.2189512 c 0.128796,0.0043 0.231832,-0.1202085 0.227539,-0.4679544 -0.0043,-0.3477461 -0.124502,-0.5452314 -0.313401,-0.5452314 -0.188899,0 -0.240418,0.321987 -0.240418,0.5237655 0,0.2017786 0.171733,0.4980066 0.32628,0.4894203 z" /><path
       id="path17-2"
       style="opacity:1;fill:#ffffff;fill-opacity:1;stroke:none;stroke-width:1.66155;stroke-linejoin:round;paint-order:stroke fill markers"
       d="m 21.80928,5.3653932 c -0.06569,0.1375882 -0.07674,0.3421667 0.07838,0.4057581 0.26606,0.1090696 0.226756,-0.036229 0.448598,0.058011 0.25292,0.1074397 0.272655,0.2429917 0.431828,0.3182618 0.159171,0.075273 0.351343,-0.088628 0.406089,-0.1956467 C 23.279919,5.7450642 23.125491,5.6061469 23.04643,5.4349089 22.967375,5.2636676 23.012239,4.9400116 22.833637,4.8662429 22.524027,4.7383694 22.528245,4.9968854 22.288111,5.1221686 22.08942,5.2258309 21.874969,5.227807 21.809269,5.3653935 Z m 1.608698,-2.0867267 a 0.09444953,0.13308797 14.37609 0 0 0.05846,0.1523722 0.09444953,0.13308797 14.37609 0 0 0.124537,-0.1054703 0.09444953,0.13308797 14.37609 0 0 -0.05845,-0.1523725 0.09444953,0.13308797 14.37609 0 0 -0.124537,0.1054703 z m 0.384508,1.0645236 a 0.09874269,0.14101706 12.409192 0 0 0.06613,0.1589395 0.09874269,0.14101706 12.409192 0 0 0.126736,-0.1165043 0.09874269,0.14101706 12.409192 0 0 -0.06613,-0.1589395 0.09874269,0.14101706 12.409192 0 0 -0.126734,0.1165043 z m 0.147872,0.6691415 c -0.02744,0.1367043 -0.351343,0.4162249 -0.585224,0.3603649 -0.233875,-0.05586 -0.23451,-0.1537533 -0.185009,-0.3759862 0.04951,-0.2222307 0.369598,-0.437985 0.59708,-0.3961258 0.227482,0.041865 0.200626,0.2750476 0.173153,0.4117471 z M 23.076356,4.5674067 c -0.116313,-0.055479 -0.150469,-0.2134359 0.01343,-0.5201689 0.163891,-0.3067332 0.361516,-0.4267122 0.529212,-0.339753 0.167693,0.086958 0.06521,0.396515 -0.02769,0.5756424 -0.09289,0.1791273 -0.381707,0.3630463 -0.514954,0.2842783 z M 23.195691,3.181149 a 0.09444953,0.13308797 23.911473 0 1 -0.140289,0.083383 0.09444953,0.13308797 23.911473 0 1 -0.0324,-0.159949 0.09444953,0.13308797 23.911473 0 1 0.140289,-0.083383 0.09444953,0.13308797 23.911473 0 1 0.0324,0.159949 z m -0.961534,0.5692754 a 0.09874269,0.14101706 23.911473 0 1 -0.147421,0.088892 0.09874269,0.14101706 23.911473 0 1 -0.0331,-0.1689352 0.09874269,0.14101706 23.911473 0 1 0.147422,-0.088892 0.09874269,0.14101706 23.911473 0 1 0.0331,0.168935 z m -0.51305,0.5004394 c -0.05881,0.1264202 -0.05175,0.6251351 0.169765,0.7186563 0.221526,0.093518 0.368323,-0.066654 0.46007,-0.27503 0.09175,-0.2083759 -0.03837,-0.571806 -0.24645,-0.6728175 -0.208081,-0.1010103 -0.32456,0.1027775 -0.383391,0.2291917 z m 0.846212,0.1356793 c 0.115996,0.056133 0.260656,-0.015924 0.397681,-0.3355644 0.137038,-0.3196365 0.10718,-0.5488989 -0.0655,-0.6254653 -0.172686,-0.076565 -0.350292,0.1969044 -0.432078,0.3813651 -0.08179,0.1844602 -0.04487,0.5248716 0.0999,0.5796636 z" /><path
       id="path17-1"
       style="opacity:1;fill:#ffffff;fill-opacity:1;stroke:none;stroke-width:1.66155;stroke-linejoin:round;paint-order:stroke fill markers"
       d="m 16.563585,12.96996 c -0.0043,0.152407 0.06854,0.343903 0.236124,0.33916 0.287433,-0.0081 0.192609,-0.125029 0.433609,-0.128795 0.274762,-0.0043 0.347746,0.111622 0.523766,0.115915 0.17602,0.0043 0.285266,-0.223429 0.291935,-0.343453 0.01288,-0.23183 -0.184607,-0.296228 -0.32628,-0.420729 -0.141675,-0.124501 -0.231847,-0.438565 -0.425024,-0.433609 -0.334867,0.0086 -0.226228,0.243213 -0.39497,0.455074 -0.139623,0.175302 -0.334867,0.264029 -0.33916,0.416437 z m 0.624826,-2.559675 a 0.13308797,0.09444953 80.464617 0 0 0.115194,0.115603 0.13308797,0.09444953 80.464617 0 0 0.0711,-0.146896 0.13308797,0.09444953 80.464617 0 0 -0.115195,-0.115602 0.13308797,0.09444953 80.464617 0 0 -0.0711,0.146895 z m 0.782984,0.817309 a 0.14101706,0.09874269 78.497719 0 0 0.124875,0.118497 0.14101706,0.09874269 78.497719 0 0 0.06864,-0.157874 0.14101706,0.09874269 78.497719 0 0 -0.124875,-0.118497 0.14101706,0.09874269 78.497719 0 0 -0.06864,0.157874 z m 0.406402,0.551775 c 0.03028,0.136106 -0.152482,0.522909 -0.38893,0.566641 -0.236445,0.04373 -0.276705,-0.0455 -0.321528,-0.268728 -0.04482,-0.223223 0.16035,-0.550201 0.385275,-0.604139 0.224926,-0.05394 0.294891,0.170122 0.325183,0.306226 z m -0.97933,-0.05248 c -0.128817,-0.0036 -0.224065,-0.134129 -0.198565,-0.480965 0.0255,-0.346836 0.157533,-0.53662 0.346081,-0.525096 0.188547,0.01153 0.220325,0.336056 0.208016,0.537458 -0.01231,0.201402 -0.201794,0.486602 -0.355532,0.468603 z m -0.45279,-1.315653 a 0.09444953,0.13308797 0 0 1 -0.09445,0.133088 0.09444953,0.13308797 0 0 1 -0.09445,-0.133088 0.09444953,0.13308797 0 0 1 0.09445,-0.133088 0.09444953,0.13308797 0 0 1 0.09445,0.133088 z m -0.648268,0.91015 a 0.09874269,0.14101706 0 0 1 -0.09874,0.141018 0.09874269,0.14101706 0 0 1 -0.09874,-0.141018 0.09874269,0.14101706 0 0 1 0.09874,-0.141017 0.09874269,0.14101706 0 0 1 0.09874,0.141017 z m -0.266176,0.66544 c -0.0025,0.13941 0.206073,0.592458 0.44649,0.588163 0.240417,-0.0043 0.309694,-0.210223 0.309106,-0.437902 -5.88e-4,-0.227679 -0.266845,-0.507177 -0.498008,-0.515179 -0.231163,-0.008 -0.255045,0.225508 -0.257588,0.364918 z m 0.82858,-0.218951 c 0.128795,0.0043 0.231831,-0.120209 0.227538,-0.467954 -0.0043,-0.347746 -0.124501,-0.545232 -0.313401,-0.545232 -0.188899,0 -0.240418,0.321987 -0.240418,0.523766 0,0.201779 0.171733,0.498007 0.326281,0.48942 z" /><path
       id="path17-7"
       style="opacity:1;fill:#ffffff;fill-opacity:1;stroke:none;stroke-width:1.66155;stroke-linejoin:round;paint-order:stroke fill markers"
       d="m 14.786217,18.49955 c -0.0043,0.152408 0.06854,0.343903 0.236124,0.33916 0.287433,-0.0081 0.192609,-0.12503 0.433609,-0.128795 0.274762,-0.0043 0.347746,0.111623 0.523766,0.115915 0.17602,0.0043 0.285266,-0.22343 0.291935,-0.343452 0.01288,-0.231832 -0.184607,-0.296228 -0.32628,-0.420731 -0.141675,-0.124501 -0.231847,-0.438564 -0.425023,-0.433609 -0.334867,0.0086 -0.226229,0.243213 -0.394971,0.455076 -0.139623,0.175301 -0.334867,0.264029 -0.33916,0.416436 z m 0.624826,-2.559674 a 0.13308797,0.09444953 80.464617 0 0 0.115194,0.115602 0.13308797,0.09444953 80.464617 0 0 0.0711,-0.146895 0.13308797,0.09444953 80.464617 0 0 -0.115195,-0.115603 0.13308797,0.09444953 80.464617 0 0 -0.0711,0.146896 z m 0.782984,0.817309 a 0.14101706,0.09874269 78.497719 0 0 0.124875,0.118495 0.14101706,0.09874269 78.497719 0 0 0.06864,-0.157874 0.14101706,0.09874269 78.497719 0 0 -0.124875,-0.118496 0.14101706,0.09874269 78.497719 0 0 -0.06864,0.157875 z m 0.406402,0.551773 c 0.03028,0.136106 -0.152482,0.52291 -0.38893,0.566641 -0.236445,0.04373 -0.276704,-0.0455 -0.321528,-0.268727 -0.04482,-0.223224 0.16035,-0.550201 0.385275,-0.604139 0.224926,-0.05394 0.294891,0.170122 0.325183,0.306225 z M 15.6211,17.256479 c -0.128818,-0.0035 -0.224066,-0.134128 -0.198566,-0.480965 0.0255,-0.346836 0.157533,-0.536621 0.346081,-0.525095 0.188547,0.01153 0.220325,0.336054 0.208016,0.537457 -0.01231,0.201403 -0.201794,0.486602 -0.355531,0.468603 z M 15.168309,15.94083 a 0.09444953,0.13308797 0 0 1 -0.09445,0.133088 0.09444953,0.13308797 0 0 1 -0.09445,-0.133088 0.09444953,0.13308797 0 0 1 0.09445,-0.133088 0.09444953,0.13308797 0 0 1 0.09445,0.133088 z m -0.648267,0.91015 a 0.09874269,0.14101706 0 0 1 -0.09874,0.141017 0.09874269,0.14101706 0 0 1 -0.09874,-0.141017 0.09874269,0.14101706 0 0 1 0.09874,-0.141017 0.09874269,0.14101706 0 0 1 0.09874,0.141017 z m -0.266177,0.66544 c -0.0025,0.13941 0.206073,0.592458 0.44649,0.588163 0.240417,-0.0043 0.309694,-0.210224 0.309106,-0.437903 -5.88e-4,-0.227678 -0.266844,-0.507176 -0.498007,-0.515179 -0.231163,-0.008 -0.255046,0.225509 -0.257589,0.364919 z m 0.82858,-0.218951 c 0.128795,0.0043 0.231831,-0.120209 0.227538,-0.467955 -0.0043,-0.347746 -0.124501,-0.545231 -0.3134,-0.545231 -0.188899,0 -0.240418,0.321987 -0.240418,0.523765 0,0.201779 0.171733,0.498006 0.32628,0.489421 z" /><path
       id="path17-2-9"
       style="opacity:1;fill:#ffffff;fill-opacity:1;stroke:none;stroke-width:1.66155;stroke-linejoin:round;paint-order:stroke fill markers"
       d="m 20.203495,10.912444 c -0.06569,0.137588 -0.07674,0.342166 0.07838,0.405758 0.26606,0.10907 0.226756,-0.03622 0.448598,0.05801 0.252919,0.107443 0.272655,0.242992 0.431828,0.318262 0.159171,0.07527 0.351343,-0.08863 0.406089,-0.195647 0.105739,-0.206713 -0.04869,-0.345631 -0.127749,-0.516869 -0.07906,-0.171241 -0.03419,-0.494898 -0.212794,-0.568666 -0.30961,-0.127874 -0.305392,0.130642 -0.545525,0.255926 -0.198692,0.103662 -0.413142,0.105641 -0.478842,0.243225 z M 21.812192,8.8257168 A 0.09444953,0.13308797 14.37609 0 0 21.870652,8.9780889 0.09444953,0.13308797 14.37609 0 0 21.995188,8.8726187 0.09444953,0.13308797 14.37609 0 0 21.936738,8.7202462 0.09444953,0.13308797 14.37609 0 0 21.8122,8.8257164 Z M 22.1967,9.8902407 A 0.09874269,0.14101706 12.409192 0 0 22.26283,10.04918 0.09874269,0.14101706 12.409192 0 0 22.389566,9.9326761 0.09874269,0.14101706 12.409192 0 0 22.323436,9.773736 0.09874269,0.14101706 12.409192 0 0 22.196701,9.8902407 Z m 0.147873,0.6691413 c -0.02744,0.136705 -0.351343,0.416226 -0.585224,0.360365 -0.233875,-0.05586 -0.234511,-0.153753 -0.185009,-0.375986 0.04951,-0.222231 0.369598,-0.437986 0.59708,-0.396126 0.227481,0.04186 0.200626,0.275048 0.173153,0.411747 z m -0.874002,-0.444925 c -0.116314,-0.05548 -0.150469,-0.2134357 0.01343,-0.520169 0.16389,-0.3067331 0.361516,-0.4267121 0.529212,-0.3397529 0.167693,0.086958 0.06521,0.396515 -0.02769,0.5756426 -0.09289,0.1791273 -0.381708,0.3630453 -0.514954,0.2842783 z m 0.119334,-1.3862577 a 0.09444953,0.13308797 23.911473 0 1 -0.140289,0.083383 0.09444953,0.13308797 23.911473 0 1 -0.0324,-0.159949 0.09444953,0.13308797 23.911473 0 1 0.140289,-0.083383 0.09444953,0.13308797 23.911473 0 1 0.0324,0.159949 z m -0.961533,0.5692754 a 0.09874269,0.14101706 23.911473 0 1 -0.147421,0.088892 0.09874269,0.14101706 23.911473 0 1 -0.0331,-0.1689352 0.09874269,0.14101706 23.911473 0 1 0.147422,-0.088892 0.09874269,0.14101706 23.911473 0 1 0.0331,0.168935 z M 20.115321,9.797914 c -0.05881,0.1264203 -0.05175,0.625135 0.169766,0.718656 0.221525,0.09352 0.368323,-0.06666 0.46007,-0.275029 0.09175,-0.208377 -0.03837,-0.5718066 -0.24645,-0.6728182 -0.208081,-0.1010103 -0.32456,0.1027776 -0.383391,0.2291923 z m 0.846213,0.1356798 c 0.115996,0.056128 0.260656,-0.015925 0.397681,-0.3355648 0.137037,-0.3196366 0.107179,-0.548899 -0.0655,-0.6254653 -0.172686,-0.076565 -0.350293,0.1969044 -0.432078,0.3813651 -0.08179,0.1844602 -0.04487,0.5248719 0.0999,0.5796639 z" /><path
       id="path17-2-5"
       style="opacity:1;fill:#ffffff;fill-opacity:1;stroke:none;stroke-width:1.66155;stroke-linejoin:round;paint-order:stroke fill markers"
       d="m 18.443299,16.235963 c -0.06569,0.137589 -0.07673,0.342167 0.07839,0.405758 0.26606,0.10907 0.226755,-0.03623 0.448597,0.05801 0.25292,0.107443 0.272656,0.242992 0.431829,0.318263 0.159171,0.07527 0.351343,-0.08863 0.406088,-0.195648 0.10574,-0.206713 -0.04869,-0.34563 -0.127749,-0.516868 -0.07905,-0.171242 -0.03419,-0.494898 -0.212793,-0.568666 -0.30961,-0.127874 -0.305392,0.130642 -0.545525,0.255926 -0.198692,0.103662 -0.413143,0.10564 -0.478843,0.243225 z m 1.608698,-2.086726 a 0.09444953,0.13308797 14.37609 0 0 0.05846,0.152372 0.09444953,0.13308797 14.37609 0 0 0.124536,-0.105464 0.09444953,0.13308797 14.37609 0 0 -0.05845,-0.152374 0.09444953,0.13308797 14.37609 0 0 -0.124538,0.105465 z m 0.384508,1.064524 a 0.09874269,0.14101706 12.409192 0 0 0.06613,0.158939 0.09874269,0.14101706 12.409192 0 0 0.126736,-0.116504 0.09874269,0.14101706 12.409192 0 0 -0.06613,-0.15894 0.09874269,0.14101706 12.409192 0 0 -0.126735,0.116505 z m 0.147873,0.669141 c -0.02744,0.136705 -0.351343,0.416225 -0.585224,0.360364 -0.233876,-0.05586 -0.234511,-0.153752 -0.18501,-0.375985 0.04951,-0.222231 0.369598,-0.437986 0.597081,-0.396126 0.227481,0.04186 0.200626,0.275048 0.173153,0.411747 z m -0.874003,-0.444925 c -0.116313,-0.05548 -0.150468,-0.213436 0.01343,-0.520169 0.16389,-0.306733 0.361516,-0.426712 0.529212,-0.339753 0.167693,0.08696 0.06521,0.396515 -0.02769,0.575643 -0.09289,0.179127 -0.381708,0.363045 -0.514954,0.284278 z M 19.82971,14.05172 a 0.09444953,0.13308797 23.911473 0 1 -0.140289,0.08338 0.09444953,0.13308797 23.911473 0 1 -0.0324,-0.15995 0.09444953,0.13308797 23.911473 0 1 0.140289,-0.08338 0.09444953,0.13308797 23.911473 0 1 0.0324,0.159949 z m -0.961534,0.569275 a 0.09874269,0.14101706 23.911473 0 1 -0.147421,0.08889 0.09874269,0.14101706 23.911473 0 1 -0.0331,-0.168936 0.09874269,0.14101706 23.911473 0 1 0.147422,-0.08889 0.09874269,0.14101706 23.911473 0 1 0.0331,0.168935 z m -0.51305,0.500439 c -0.05881,0.12642 -0.05175,0.625135 0.169766,0.718656 0.221525,0.09352 0.368323,-0.06666 0.460069,-0.275029 0.09175,-0.208377 -0.03837,-0.571807 -0.246449,-0.672818 -0.208081,-0.101014 -0.324561,0.102783 -0.383392,0.229191 z m 0.846213,0.13568 c 0.115996,0.05613 0.260656,-0.01592 0.397681,-0.335565 0.137037,-0.319637 0.107179,-0.548899 -0.0655,-0.625466 -0.172685,-0.07657 -0.350292,0.196905 -0.432077,0.381366 -0.08179,0.18446 -0.04487,0.524872 0.0999,0.579664 z" /><path
       id="path17-2-2"
       style="opacity:1;fill:#ffffff;fill-opacity:1;stroke:none;stroke-width:1.66155;stroke-linejoin:round;paint-order:stroke fill markers"
       d="m 16.640171,21.756968 c -0.06569,0.137588 -0.07674,0.342166 0.07838,0.405758 0.26606,0.109069 0.226756,-0.03622 0.448598,0.05801 0.25292,0.107443 0.272655,0.242991 0.431828,0.318261 0.159171,0.07527 0.351343,-0.08863 0.406089,-0.195647 0.10574,-0.206712 -0.04869,-0.34563 -0.127749,-0.516869 -0.07905,-0.17124 -0.03419,-0.494897 -0.212794,-0.568665 -0.309609,-0.127873 -0.305391,0.130643 -0.545525,0.255926 -0.198691,0.103662 -0.413142,0.10564 -0.478842,0.243225 z m 1.608698,-2.086727 a 0.09444953,0.13308797 14.37609 0 0 0.05846,0.152372 0.09444953,0.13308797 14.37609 0 0 0.124537,-0.105465 0.09444953,0.13308797 14.37609 0 0 -0.05845,-0.152372 0.09444953,0.13308797 14.37609 0 0 -0.124537,0.105465 z m 0.384508,1.064523 a 0.09874269,0.14101706 12.409192 0 0 0.06613,0.158939 0.09874269,0.14101706 12.409192 0 0 0.126736,-0.116503 0.09874269,0.14101706 12.409192 0 0 -0.06613,-0.15894 0.09874269,0.14101706 12.409192 0 0 -0.126734,0.116504 z m 0.147872,0.669142 c -0.02744,0.136704 -0.351343,0.416224 -0.585224,0.360365 -0.233875,-0.05587 -0.23451,-0.153754 -0.185009,-0.375987 0.04951,-0.22223 0.369598,-0.437984 0.59708,-0.396126 0.227481,0.04186 0.200626,0.275048 0.173153,0.411748 z m -0.874002,-0.444925 c -0.116313,-0.05548 -0.150469,-0.213436 0.01343,-0.520169 0.163891,-0.306733 0.361516,-0.426712 0.529212,-0.339753 0.167693,0.08696 0.06521,0.396515 -0.02768,0.575642 -0.09289,0.179128 -0.381707,0.363047 -0.514954,0.284278 z m 0.119335,-1.386258 a 0.09444953,0.13308797 23.911473 0 1 -0.140289,0.08338 0.09444953,0.13308797 23.911473 0 1 -0.0324,-0.159949 0.09444953,0.13308797 23.911473 0 1 0.140289,-0.08338 0.09444953,0.13308797 23.911473 0 1 0.0324,0.159949 z m -0.961534,0.569276 a 0.09874269,0.14101706 23.911473 0 1 -0.147421,0.08889 0.09874269,0.14101706 23.911473 0 1 -0.0331,-0.168935 0.09874269,0.14101706 23.911473 0 1 0.147422,-0.08889 0.09874269,0.14101706 23.911473 0 1 0.0331,0.168936 z m -0.51305,0.500439 c -0.05881,0.12642 -0.05175,0.625135 0.169765,0.718656 0.221526,0.09352 0.368323,-0.06666 0.46007,-0.27503 0.09175,-0.208376 -0.03837,-0.571806 -0.24645,-0.672818 -0.208081,-0.101013 -0.32456,0.102783 -0.383391,0.229193 z m 0.846212,0.135679 c 0.115996,0.05613 0.260656,-0.01593 0.397681,-0.335564 0.137037,-0.319637 0.10718,-0.548899 -0.0655,-0.625465 -0.172686,-0.07657 -0.350292,0.196904 -0.432078,0.381365 -0.08179,0.18446 -0.04487,0.524871 0.0999,0.579663 z" /></g></svg>
